Coordinates
version=1
nRows=8
nColumns=36
inDegrees=yes

Units are S.I. units (second, meters, Newtons, ...)
If the header above contains a line with 'inDegrees', this indicates whether rotational values are in degrees (yes) or radians (no).

endheader
time	pelvis_tilt	pelvis_list	pelvis_rotation	pelvis_tx	pelvis_ty	pelvis_tz	hip_flexion_r	hip_adduction_r	hip_rotation_r	knee_angle_r	knee_angle_r_beta	ankle_angle_r	subtalar_angle_r	mtp_angle_r	hip_flexion_l	hip_adduction_l	hip_rotation_l	knee_angle_l	knee_angle_l_beta	ankle_angle_l	subtalar_angle_l	mtp_angle_l	lumbar_extension	lumbar_bending	lumbar_rotation	arm_flex_r	arm_add_r	arm_rot_r	elbow_flex_r	pro_sup_r	arm_flex_l	arm_add_l	arm_rot_l	elbow_flex_l	pro_sup_l
      0.70000000	     -3.42509365	     -1.02872315	      3.77979708	      0.69914681	      1.00225934	     -0.19140993	      5.24532552	      0.45519500	    -19.35384113	     52.31265825	      0.91302813	    -11.17152387	    -11.57173060	     -6.86484083	     29.49501129	     -1.59702231	     -6.69124228	     20.37001387	      0.35552381	     -3.09831401	     -0.55476431	     -6.86484083	    -20.19236462	    -26.62053193	      3.23048204	    -16.44314385	     -8.60830381	    -11.55517627	     68.26457917	    109.21601759	    -16.08354947	     -4.59161970	    -27.49615119	     29.57926935	     93.98565316
      0.71000000	     -3.59656828	     -0.82661673	      4.01871063	      0.71054181	      1.00370381	     -0.19461857	      7.31396063	     -0.59813556	    -19.86127201	     55.35299739	      0.96609206	    -14.35724284	    -14.01293783	     -6.88214754	     29.16082337	     -1.37045208	     -7.49256893	     20.87050207	      0.36425898	     -2.02806663	      0.49287882	     -6.88214754	    -20.38771663	    -26.43120759	      2.57310869	    -16.61933927	     -8.53657578	    -11.02124871	     67.52436483	    109.53356156	    -15.30344415	     -4.61363252	    -27.46317479	     30.13856204	     94.13940160
      0.72000000	     -3.70345889	     -0.60938588	      4.18393037	      0.72178195	      1.00548342	     -0.19774032	      9.30937404	     -1.61101701	    -20.12632948	     58.13955624	      1.01472668	    -16.26691073	    -15.70541525	     -6.89692826	     28.61085552	     -1.12279273	     -8.18483041	     21.10809215	      0.36840571	     -1.06355739	      1.40962743	     -6.89692826	    -20.60974655	    -26.23251405	      2.00950827	    -16.80600156	     -8.41255584	    -10.52763876	     66.88070402	    109.75304131	    -14.45836675	     -4.63613261	    -27.38032627	     30.74872074	     94.28598926
      0.73000000	     -3.77909135	     -0.39901868	      4.29699906	      0.73274770	      1.00756457	     -0.20079467	     11.28571067	     -2.49429189	    -20.06630780	     60.62803594	      1.05815885	    -16.96480105	    -16.94499597	     -6.90558694	     27.90466507	     -0.83854361	     -8.72511912	     21.07729657	      0.36786822	     -0.19623826	      2.12120302	     -6.90558694	    -20.84043593	    -25.99752639	      1.51899200	    -16.95248985	     -8.31966235	    -10.11472239	     66.30023425	    109.86481302	    -13.53341456	     -4.71520128	    -27.24362931	     31.42548027	     94.40872331
      0.74000000	     -3.78427487	     -0.30299647	      4.39202243	      0.74361627	      1.00998765	     -0.20369988	     13.14993537	     -3.11517147	    -19.85356415	     62.68470919	      1.09405457	    -16.74299617	    -17.92385385	     -6.91108987	     27.09487314	     -0.65461413	     -9.09503379	     20.96599545	      0.36592565	      0.50041353	      2.69861836	     -6.91108987	    -21.07751696	    -25.63431763	      1.22567355	    -17.13776130	     -8.23457746	     -9.69167424	     65.59849620	    109.92928875	    -12.51792047	     -4.78835501	    -27.08625365	     32.20307781	     94.52441965
      0.75000000	     -3.96689724	     -0.30338689	      4.36930144	      0.75433401	      1.01238935	     -0.20625372	     15.24833185	     -3.47583092	    -19.31208446	     64.41849428	      1.12431482	    -15.52699068	    -18.08630484	     -6.93607748	     26.44372813	     -0.63163506	     -9.61898670	     20.77534162	      0.36259811	      1.35754427	      3.81910839	     -6.93607748	    -20.99020614	    -25.22602432	      0.78503257	    -17.04196679	     -8.25111160	     -8.87585966	     64.63338056	    110.23517254	    -11.80433739	     -4.78220328	    -27.24212515	     33.37477033	     94.74219052
      0.76000000	     -4.03847286	     -0.21950655	      4.36755881	      0.76499179	      1.01516684	     -0.20889635	     17.17181840	     -3.84663309	    -18.67391031	     65.76030189	      1.14773379	    -13.90096560	    -17.84287148	     -6.94995983	     25.54470748	     -0.40426878	     -9.75622880	     20.31579615	      0.35457753	      1.83818516	      4.22390491	     -6.94995983	    -21.03910655	    -24.85930636	      0.52134747	    -17.09973702	     -8.11773520	     -8.46270812	     63.82030789	    110.36392922	    -10.90153188	     -4.84923514	    -27.17020911	     34.50470265	     94.92152624
      0.77000000	     -4.01042717	     -0.29420972	      4.37234475	      0.77569210	      1.01827379	     -0.21139470	     18.88033046	     -3.88398212	    -17.97472192	     66.51355550	      1.16088054	    -12.61000101	    -17.78342661	     -6.95503487	     24.48243689	     -0.29607297	     -9.58791832	     19.71187602	      0.34403714	      2.31435750	      4.43499534	     -6.95503487	    -21.11617518	    -24.30066934	      0.47522277	    -17.25888145	     -7.98476317	     -8.13577677	     63.04251964	    110.40183678	     -9.83768122	     -4.91077325	    -27.03556442	     35.52716859	     95.05102807
